<svg xmlns="http://www.w3.org/2000/svg" width="343" height="50" viewBox="0 0 343 50">
  <g id="Sign_In_-_Facebook" data-name="Sign In - Facebook" transform="translate(-16 -664)">
    <g id="BG" transform="translate(16 664)" fill="none" stroke="#ddd" stroke-width="1">
      <rect width="343" height="50" rx="4" stroke="none"/>
      <rect x="0.5" y="0.5" width="342" height="49" rx="3.5" fill="none"/>
    </g>
    <text id="Sign_In_with_Facebook" data-name="Sign In with Facebook" transform="translate(187.5 694)" font-size="14" font-family="SegoeUI, Segoe UI"><tspan x="-67.594" y="0">Sign In with Facebook</tspan></text>
    <g id="Icon_Facebook" transform="translate(46 679)">
      <path id="Path_76" data-name="Path 76" d="M17.3,0H2.7A2.693,2.693,0,0,0,0,2.7V17.3a2.692,2.692,0,0,0,2.7,2.69H9.9l.012-7.148H8.053a.445.445,0,0,1-.44-.434l-.006-2.305a.438.438,0,0,1,.44-.44H9.9V7.441a3.636,3.636,0,0,1,3.883-3.987h1.889a.438.438,0,0,1,.44.44V5.839a.438.438,0,0,1-.44.44H14.509c-1.253,0-1.5.593-1.5,1.467V9.673h2.751a.436.436,0,0,1,.434.489l-.275,2.305a.436.436,0,0,1-.434.385h-2.47v7.142H17.3A2.7,2.7,0,0,0,20,17.3V2.7A2.7,2.7,0,0,0,17.3,0Zm0,0" fill="#475993"/>
    </g>
  </g>
</svg>
